PathFileType	4	(x/y/z)	S05_PSF_T06
DataRate	CameraRate	NumFrames	NumMarkers	Units	OrigDataRate	OrigDataStartFrame	OrigNumFrames
240	240	5	50	mm	240	323	430
Frame#	Time	Sternum			R.Acromium			L.Acromium			Top.Head			R.ASIS			L.ASIS			R.PSIS			L.PSIS			R.Great.Tro			L.Great.Tro			R.Iliac.Crest			L.Iliac.Crest			V.Sacral			R.Thigh.Upper.Post			R.Thigh.Lower.Ant			R.Thigh.Lower.Post			R.Thigh.Upper.Ant			R.Knee.Lat			R.Knee.Med			R.Shank.Upper.Post			R.Shank.Lower.Ant			R.Shank.Lower.Post			R.Shank.Upper.Ant			R.Ankle.Lat			R.Ankle.Med			R.Heel.Upper			R.Heel.Med			R.Heel.Lat			R.Toe.Lat			R.Toe.Med			R.Toe.Tip			L.Thigh.Upper.Post			L.Thigh.Lower.Ant			L.Thigh.Lower.Post			L.Thigh.Upper.Ant			L.Knee.Lat			L.Shank.Upper.Post			L.Shank.Lower.Ant			L.Shank.Lower.Post			L.Shank.Upper.Ant			L.Ankle.Lat			L.Ankle.Med			L.Heel.Upper			L.Heel.Med			L.Heel.Lat			L.Toe.Lat			L.Toe.Med			L.Toe.Tip			Cervical.Spine			Back			
		X1	Y1	Z1	X2	Y2	Z2	X3	Y3	Z3	X4	Y4	Z4	X5	Y5	Z5	X6	Y6	Z6	X7	Y7	Z7	X8	Y8	Z8	X9	Y9	Z9	X10	Y10	Z10	X11	Y11	Z11	X12	Y12	Z12	X13	Y13	Z13	X14	Y14	Z14	X15	Y15	Z15	X16	Y16	Z16	X17	Y17	Z17	X18	Y18	Z18	X19	Y19	Z19	X20	Y20	Z20	X21	Y21	Z21	X22	Y22	Z22	X23	Y23	Z23	X24	Y24	Z24	X25	Y25	Z25	X26	Y26	Z26	X27	Y27	Z27	X28	Y28	Z28	X29	Y29	Z29	X30	Y30	Z30	X31	Y31	Z31	X32	Y32	Z32	X33	Y33	Z33	X34	Y34	Z34	X35	Y35	Z35	X36	Y36	Z36	X37	Y37	Z37	X38	Y38	Z38	X39	Y39	Z39	X40	Y40	Z40	X41	Y41	Z41	X42	Y42	Z42	X43	Y43	Z43	X44	Y44	Z44	X45	Y45	Z45	X46	Y46	Z46	X47	Y47	Z47	X48	Y48	Z48	X49	Y49	Z49	X50	Y50	Z50	

323	1.3417	306.71	1249.9	269.85	218.39	1518.5	410.14	197.98	1517.4	86.06	213.05	1818.2	213.98	229.91	992.63	411.57	255.95	1011.7	162.47	39.529	1018.6	305.86	48.532	1023.9	214.64	137.63	909.9	461.48	181.28	934.07	75.984	140.65	1081.8	441.15	163.88	1084.5	104.51	29.538	986.08	269.64	183.51	689.35	470.69	242.36	614.25	433.64	173.44	600.58	453.74	249.05	702.34	450.61	153.12	506.83	439.83	178.03	483.4	310.68	-67	408.7	403.42	-79.653	318.8	404.3	-123.94	360.75	381.43	-21.563	366.87	425.19	-171.61	270.48	380.93	-132.74	269.07	299.02	-241.94	288.86	304.48	-256.62	258.64	275.09	-266.81	269.19	339.24	-193.38	135.92	419.58	-146.76	102.79	312.83	-97.098	82.09	368.61	227.72	698.31	83.083	319.03	641.25	108.32	254.56	608.19	100.3	300.2	728.67	90.434	285.33	522.37	108.85	232.32	317.71	114.47	303.31	264.03	116.59	235.76	246.28	133.81	296.09	333.51	102.99	274.43	109.51	143.32	315.55	132.07	225.02	226.38	65.459	204.21	241.58	43.753	237.26	225.93	36.693	177.26	402.65	37.821	107.96	434.28	61.255	222.53	491.65	72.02	162.73	164.32	1557.6	252.4	45.954	1286.1	270.16
324	1.3458	311.9	1250.3	269.57	223.63	1519.1	409.72	203.52	1517.8	85.597	218.49	1818.8	213.2	235.36	993.34	410.83	260.95	1012.4	161.68	44.714	1018.9	305.53	53.574	1024.4	214.3	143.74	910.24	461.02	185.95	934.61	75.481	145.92	1082.2	440.66	168.86	1085.1	103.98	34.758	986.37	269.28	192.53	690.06	470.29	252.05	615.73	432.84	183.46	601.18	453.35	257.67	703.9	449.72	164.31	507.41	439.39	189.08	484.28	310.12	-56.108	410.7	402.54	-69.24	320.87	403.57	-113.33	363.02	380.65	-10.915	368.68	424.42	-161.47	272.96	380.11	-122.39	271.54	298.07	-232.17	291.1	303.62	-246.74	260.77	274.31	-256.87	271.4	338.48	-182.71	138.71	418.94	-136.03	105.56	312.22	-86.211	84.992	368.02	231.38	698.64	82.693	322.46	641.14	107.85	257.79	608.4	99.94	304.06	728.62	89.84	288.05	522.38	108.55	233.8	318.03	114.61	304.49	263.92	116.51	236.87	246.6	133.97	297.64	333.44	102.87	274.76	109.65	143.43	315.96	132.04	225.12	226.42	65.547	204.25	241.61	43.796	237.29	225.99	36.812	177.27	402.73	37.725	107.99	434.41	60.948	222.65	491.81	71.56	162.86	169.7	1558.3	251.91	51.156	1286.8	269.47
325	1.35	317.07	1250.7	269.3	228.83	1519.6	409.33	209.04	1518.3	85.154	223.93	1819.4	212.47	240.81	994.08	410.08	265.92	1013	160.9	49.879	1019.2	305.22	58.597	1024.8	213.98	149.83	910.65	460.6	190.56	935.14	75.003	151.19	1082.7	440.17	173.79	1085.7	103.45	39.95	986.71	268.96	201.49	690.87	469.88	261.68	617.31	432.01	193.43	601.9	452.94	266.21	705.55	448.82	175.46	508.1	438.92	200.09	485.27	309.53	-45.167	412.58	401.66	-58.686	322.81	402.87	-102.61	365.09	379.89	-0.17324	370.41	423.65	-151.13	275.18	379.31	-111.87	273.82	297.13	-222.23	293.04	302.82	-236.66	262.6	273.58	-246.73	273.27	337.78	-171.69	141.2	418.29	-124.97	108.12	311.56	-74.962	87.748	367.36	234.98	698.96	82.329	325.82	641.02	107.39	260.96	608.6	99.602	307.87	728.55	89.257	290.71	522.38	108.26	235.26	318.35	114.75	305.64	263.82	116.43	237.96	246.91	134.12	299.15	333.37	102.75	275.08	109.79	143.53	316.36	132.01	225.23	226.46	65.637	204.29	241.62	43.841	237.32	226.05	36.935	177.28	402.81	37.63	108.02	434.54	60.653	222.76	491.97	71.118	162.99	175.05	1559	251.44	56.34	1287.6	268.78
326	1.3542	322.21	1251	269.02	234.01	1520.2	408.95	214.52	1518.8	84.729	229.35	1820.1	211.79	246.23	994.86	409.34	270.87	1013.7	160.13	55.028	1019.6	304.94	63.602	1025.4	213.69	155.89	911.12	460.2	195.14	935.65	74.549	156.46	1083.3	439.68	178.69	1086.3	102.93	45.116	987.09	268.67	210.4	691.76	469.44	271.24	618.98	431.16	203.35	602.71	452.51	274.69	707.3	447.91	186.55	508.88	438.41	211.03	486.37	308.91	-34.184	414.31	400.8	-47.997	324.6	402.17	-91.802	366.97	379.13	10.656	372.04	422.88	-140.59	277.14	378.54	-101.18	275.88	296.21	-212.13	294.67	302.07	-226.39	264.13	272.89	-236.39	274.8	337.14	-160.35	143.39	417.62	-113.6	110.47	310.86	-63.373	90.335	366.62	238.53	699.27	81.99	329.13	640.89	106.94	264.07	608.78	99.285	311.62	728.46	88.683	293.31	522.38	107.99	236.69	318.66	114.89	306.77	263.72	116.35	239.03	247.23	134.27	300.62	333.31	102.64	275.4	109.93	143.64	316.76	131.99	225.34	226.5	65.727	204.34	241.64	43.887	237.35	226.11	37.059	177.3	402.88	37.535	108.04	434.67	60.371	222.86	492.12	70.693	163.1	180.38	1559.6	250.99	61.508	1288.3	268.1
327	1.3583	327.33	1251.4	268.74	239.16	1520.8	408.59	219.97	1519.4	84.32	234.77	1820.7	211.17	251.64	995.67	408.6	275.8	1014.3	159.35	60.163	1020	304.68	68.593	1025.9	213.42	161.92	911.64	459.83	199.68	936.14	74.12	161.74	1083.9	439.19	183.56	1086.8	102.41	50.259	987.52	268.42	219.26	692.74	468.99	280.74	620.75	430.3	213.21	603.61	452.05	283.1	709.12	446.99	197.58	509.76	437.87	221.92	487.57	308.27	-23.165	415.9	399.94	-37.177	326.22	401.49	-80.902	368.64	378.39	21.569	373.57	422.11	-129.86	278.83	377.79	-90.333	277.72	295.32	-201.85	295.99	301.37	-215.93	265.35	272.25	-225.85	275.99	336.54	-148.71	145.26	416.94	-101.93	112.58	310.11	-51.465	92.732	365.82	242.02	699.57	81.672	332.39	640.74	106.51	267.12	608.96	98.987	315.31	728.36	88.118	295.84	522.37	107.72	238.1	318.97	115.01	307.87	263.63	116.27	240.08	247.54	134.4	302.07	333.25	102.53	275.71	110.08	143.73	317.15	131.97	225.44	226.54	65.817	204.38	241.65	43.936	237.38	226.17	37.184	177.31	402.95	37.44	108.06	434.8	60.1	222.96	492.27	70.284	163.2	185.7	1560.3	250.55	66.661	1289	267.43
